<svg xmlns="http://www.w3.org/2000/svg" viewBox="0 0 298.36 181.3"><defs><style>.cls-1{fill:#252e3e;}</style></defs><title>app_iconLogo</title><g id="Layer_2" data-name="Layer 2"><g id="Layer_1-2" data-name="Layer 1"><path d="M298.34,87.19A89.3,89.3,0,0,0,156.09,17.41c-1.48,1.1-2.93,2.24-4.35,3.44s-2.76,2.4-4.09,3.67c-1.06,1-2.1,2-3.12,3.1l-8.37,8.78-3.78,4-3.77,3.95L82.89,92.19l47.89,45.71,3.95,3.77,4,3.77q1.65-1.51,3.21-3.15l8.29-8.68-3.94-3.76-40-38.21,34.44-36.06,7.53-7.88L156.47,39c1-1.09,2.11-2.15,3.21-3.16q2-1.87,4.15-3.57T168.3,29a72.73,72.73,0,1,1,2.83,122.31l-1,1.1-8.38,8.77c-.74.78-1.49,1.54-2.24,2.28A89.28,89.28,0,0,0,298.34,87.19Z"/><path class="cls-1" d="M148.19,47.7l3.93,3.76,3.94,3.76,36.08,34.43L157.7,125.73l-3.76,3.94-3.76,3.94-8.29,8.68q-1.56,1.64-3.21,3.15-2,1.89-4.15,3.57t-4.46,3.28A72.73,72.73,0,1,1,127.23,30l9.42-9.87q1.13-1.17,2.25-2.28A89.28,89.28,0,0,0,27.62,156.6a89.26,89.26,0,0,0,123.09.19c.52-.49,1-1,1.54-1.49l.81-.83.77-.79h0l8.38-8.77,53.26-55.79L167.58,43.4l-4-3.77-3.95-3.77c-1.1,1-2.17,2.07-3.21,3.16Z"/></g></g></svg>