<svg xmlns="http://www.w3.org/2000/svg" viewBox="0 0 548 548"><defs><style>.cls-1{fill:none;}.cls-2{fill:#1890ff;}.cls-3{fill:#1d2a38;}.cls-4{font-size:72px;font-family:OpenSans-Regular, Open Sans;}</style></defs><title>Asset 1</title><g id="Layer_2" data-name="Layer 2"><g id="Layer_1-2" data-name="Layer 1"><rect class="cls-1" width="548" height="548" rx="97.75" ry="97.75"/><path class="cls-2" d="M379.59,225.1a63.21,63.21,0,0,0-100.7-49.4c-1.05.78-2.07,1.59-3.08,2.44s-1.95,1.69-2.89,2.59c-.76.71-1.49,1.45-2.21,2.2l-5.93,6.22-2.67,2.79-2.67,2.8-32.37,33.89L261,261l2.79,2.67,2.8,2.67c.77-.72,1.53-1.47,2.27-2.24l5.87-6.14-2.79-2.67-28.33-27L268,202.72l5.33-5.58,5.86-6.14c.74-.78,1.5-1.52,2.27-2.24q1.44-1.33,2.94-2.52c1-.83,2.09-1.6,3.16-2.32a51.49,51.49,0,1,1,2,86.59l-.74.77-5.93,6.21-1.59,1.62a63.21,63.21,0,0,0,98.31-54Z"/><path class="cls-3" d="M273.3,197.14l2.78,2.66,2.79,2.66,25.54,24.38L280,252.38l-2.66,2.79L274.71,258l-5.87,6.14c-.74.77-1.5,1.52-2.27,2.24-1,.88-1.94,1.73-2.94,2.52s-2.08,1.6-3.16,2.32a51.49,51.49,0,1,1-2-86.59l6.67-7q.8-.84,1.59-1.62a63.2,63.2,0,1,0,8.37,98.38l1.08-1.06.58-.58.54-.56h0l5.93-6.21,37.71-39.49L287,194.1l-2.79-2.67-2.8-2.67c-.77.72-1.53,1.46-2.27,2.24Z"/><text class="cls-4" transform="translate(182.47 365.11)">venni</text></g></g></svg>