<svg xmlns="http://www.w3.org/2000/svg" viewBox="0 0 472 318.7"><defs><style>.cls-1{fill:#adbec4;}.cls-2{fill:#0e3944;}.cls-3{fill:#ef6e4b;}.cls-4{fill:#ff8b66;}.cls-5{fill:#164353;}.cls-6{fill:#cfd8dc;}.cls-7{fill:#db614d;}.cls-8{fill:#1a4850;}.cls-9{fill:#6097b2;}.cls-10{fill:#205260;}.cls-11{fill:#8b383e;}.cls-12{fill:#662c33;}.cls-13{fill:#ce364c;}.cls-14{fill:#f24052;}.cls-15{fill:#a02e44;}.cls-16{fill:#ffb878;}.cls-17{fill:#0c476b;}.cls-18{fill:#105e99;}.cls-19{fill:#225866;}.cls-20{fill:#8bbddb;}.cls-21{fill:#3e6575;}</style></defs><title>People</title><g id="Layer_2" data-name="Layer 2"><g id="Layer_1-2" data-name="Layer 1"><rect class="cls-1" x="39.93" y="314.23" width="58.61" height="4.47" rx="1.75" ry="1.75"/><rect class="cls-1" x="429.11" y="314.23" width="18.58" height="4.47" rx="1.75" ry="1.75"/><rect class="cls-1" x="143.63" y="314.23" width="58.61" height="4.47" rx="1.75" ry="1.75"/><rect class="cls-1" x="224.54" y="314.23" width="58.61" height="4.47" rx="1.75" ry="1.75"/><rect class="cls-1" x="303.61" y="314.23" width="78.62" height="4.47" rx="1.75" ry="1.75"/><path class="cls-2" d="M115.26,68.43s-5.82-4-14.33-.91S90.5,82,92.6,91.34,83,132.4,83,132.4s6.09,8.57,27.38,5.29c0,0,15.87-28.85,14.69-49.56S115.26,68.43,115.26,68.43Z"/><path class="cls-3" d="M122,104.22c8-2.56,12.89,4.1,17.48,16.5s6.12,13.64,6.12,13.64l17.7,11.36-1.47,6.63S145,145.76,140.9,141.56s-15.79-25.43-15.79-25.43Z"/><path class="cls-4" d="M83,184.31s-3.48,17.58-2.9,44c0,0-13.68,20.17-2.39,77.72h5.92s4.83-49,8.54-62.23,17.36-17.34,18.1-57.68Z"/><path class="cls-4" d="M55.92,236c-3.44-11.34-12.28-30.33-35-56.07a3.36,3.36,0,0,0-3.18.42c-1.93,1.18-1.93,2.56-1.93,2.56s11.38,24.79,18.63,43A16.09,16.09,0,0,0,49.41,236Z"/><path class="cls-5" d="M97.23,257.93s.07,8.46-5.48,8.6c-7.84.21-8.13-8.33-17-8s-27.2,2.5-33-11.38c-3-7.17,1.11-16.38-8.6-23.31s-5-14.72,0-18.88-2.16-8.7,3-10.82a5.09,5.09,0,0,1,3.6-.07,8.37,8.37,0,0,1,1.89.95,18.36,18.36,0,0,1,4.68,5c14.71-40.29,40.9-45.61,40.9-45.61l25.91,8.94C113.76,226,97.23,257.93,97.23,257.93Z"/><path class="cls-6" d="M122,104.22a34.09,34.09,0,0,1-14.64.73c-8.6-1.31-11.39-6.7-17.43-3.23-9.07,5.21-4.83,23.16-2.55,32.5.85,3.48,1.92,12.62-.13,20.16,0,0,12.08,9.4,25.91,8.94l7.54-16.41S137.08,127.29,122,104.22Z"/><path class="cls-3" d="M106.63,89.16a37.1,37.1,0,0,1-2.14,16.21s4.49,6.63,8.77,2.27a42.77,42.77,0,0,1,5.2-16.59C121.68,85.16,106.63,89.16,106.63,89.16Z"/><path class="cls-4" d="M99.76,89.45s-3.79-2.4-3.36,1.3c.5,4.28,4.67,5.11,5.11,3.61S99.76,89.45,99.76,89.45Z"/><path class="cls-4" d="M121.46,84.82s2.4-3.78,3.59-.26c1.38,4.08-2,6.62-3.08,5.45S121.46,84.82,121.46,84.82Z"/><path class="cls-4" d="M113.65,102.23c-6.86,1.54-11.74-2.07-14.75-15.52-1.55-6.93,1-12,8.71-13.69s11.87,1.8,13.43,8.74C124.27,96.2,120.74,100.65,113.65,102.23Z"/><path class="cls-7" d="M119.84,87.06a1.49,1.49,0,0,1-1,1.82,1.47,1.47,0,0,1-2-.57,1.66,1.66,0,0,1,3-1.25Z"/><path class="cls-7" d="M105.81,90.6a1.66,1.66,0,1,1-1.81-1A1.49,1.49,0,0,1,105.81,90.6Z"/><path class="cls-2" d="M115.06,80.8a.36.36,0,0,1-.2-.06,4,4,0,0,0-2.85-.36.36.36,0,1,1-.17-.69,4.72,4.72,0,0,1,3.41.46.35.35,0,0,1,.1.49A.36.36,0,0,1,115.06,80.8Z"/><path class="cls-2" d="M102.14,83.69a.41.41,0,0,1-.18,0,.35.35,0,0,1-.12-.48,4.71,4.71,0,0,1,2.9-1.88.36.36,0,0,1,.41.28.35.35,0,0,1-.28.41,4.11,4.11,0,0,0-2.43,1.55A.34.34,0,0,1,102.14,83.69Z"/><path class="cls-8" d="M115.36,84.56c.19.85,0,1.63-.51,1.74s-1-.5-1.21-1.35,0-1.63.52-1.74S115.17,83.71,115.36,84.56Z"/><path class="cls-8" d="M105.83,86.61c.19.86,0,1.63-.52,1.74s-1-.5-1.2-1.35,0-1.63.51-1.74S105.64,85.76,105.83,86.61Z"/><path class="cls-8" d="M108.91,94.68s4.41-.36,6.35-2c0,0-.54,3.44-2.93,3.68A3.51,3.51,0,0,1,108.91,94.68Z"/><path class="cls-8" d="M113,84.66s.15-2.24,1-2.28S115.86,84,115.86,84l1.07-.92-1.18.43s-1.06-1.73-1.87-1.55C112.72,82.22,113,84.66,113,84.66Z"/><path class="cls-8" d="M106.35,86.4s-1.09-2-1.88-1.62-1,2.27-1,2.27l-1.36-.37,1.26-.11s.21-2,1-2.21C105.53,84.1,106.35,86.4,106.35,86.4Z"/><path class="cls-7" d="M111.13,90.71l-.35-.67a.88.88,0,0,0,.56-1,1,1,0,0,0-.65-.74c-.14,0-.26.11-.35.35l-.71-.26a1.1,1.1,0,0,1,1.11-.85,1.67,1.67,0,0,1,1.34,1.35A1.64,1.64,0,0,1,111.13,90.71Z"/><path class="cls-2" d="M100.3,91.87s-2.12-7.79-.86-13.29c0,0,6-8.32,17.49-4.21A46.49,46.49,0,0,1,122,87.58s.43-2.77-.72-8.93-6.61-10-14.1-8.76S91.7,78.58,100.3,91.87Z"/><path class="cls-2" d="M112.38,72.65s.46,2-1.52,7.26a2.16,2.16,0,0,0-3.09,0c-1.66,1.49-5,1-6.2,1.79a3.58,3.58,0,0,0-1.15,2.64,7.25,7.25,0,0,1,0-5,10,10,0,0,0-2,6.38s-3-.49-2.91-5.52,7.28-13.16,15.3-12.63,9.92,13.22,9.92,13.22a2.31,2.31,0,0,0-1.87-.32,16.73,16.73,0,0,0-2-6.08,9,9,0,0,1,0,5.08,7.22,7.22,0,0,0-4-.8S114,76.52,112.38,72.65Z"/><path class="cls-4" d="M87.87,103.32c3.9-3.07,6.94.84,7.69,6.25s-6.31,37.33-11.75,36.15c-2.1-.45-3-8.81-3-8.81a191.18,191.18,0,0,0,3.5-22.48C85,108.22,85.84,104.93,87.87,103.32Z"/><path class="cls-4" d="M76.52,141.21c-5.25-5-14.67-21.61-17.06-30.07l4-1.6s12,17.17,17.47,21.5,7.39,9.15,5,13.28S77.63,142.27,76.52,141.21Z"/><path class="cls-4" d="M61.1,100.07c-.28,5.43,4.15,6.71,2.18,10.88a2.85,2.85,0,0,1-1.66,1.55,3.35,3.35,0,0,1-3.47-.9,39,39,0,0,0-7.09-5.36c-2-1.14-.85-1.45-.85-1.45-.19-.09-.38-.16-.57-.24-1.4-.59-2.52-.81-1.5-1.43s5.2.77,5.2.77c-5.28-3.52-6.72-2.66-5.75-3.41,1.31-1,6.34,1.33,6.49,1.4-2.79-2.64-4.82-3.24-3.71-3.64s6.65,3.6,8.67,5.1l.73.56C59.7,99.46,61.1,100.07,61.1,100.07Z"/><path class="cls-3" d="M59,103.34l.73.56a3.69,3.69,0,0,0,.28,3.65A3.29,3.29,0,0,1,59,103.34Z"/><path class="cls-3" d="M54.4,106.46c-.46-.26-3.13-1.76-4.19-1.67-.19-.09-.38-.16-.57-.24C50.36,103.61,53.87,106.08,54.4,106.46Z"/><path class="cls-9" d="M75.37,187A1.07,1.07,0,1,1,74.3,186,1.06,1.06,0,0,1,75.37,187Z"/><path class="cls-9" d="M94.41,194.38a1.07,1.07,0,1,1-1.07-1.07A1.07,1.07,0,0,1,94.41,194.38Z"/><path class="cls-9" d="M110.63,198.32a1.07,1.07,0,1,1-1.07-1.07A1.07,1.07,0,0,1,110.63,198.32Z"/><path class="cls-9" d="M85.7,173.1A1.07,1.07,0,1,1,84.64,172,1.07,1.07,0,0,1,85.7,173.1Z"/><circle class="cls-9" cx="88.23" cy="183.24" r="1.07"/><path class="cls-9" d="M106.18,189a1.07,1.07,0,1,1-1.07-1.06A1.07,1.07,0,0,1,106.18,189Z"/><path class="cls-9" d="M108.5,171.53a1.07,1.07,0,1,1-1.07-1.07A1.07,1.07,0,0,1,108.5,171.53Z"/><circle class="cls-9" cx="96.37" cy="167.89" r="1.07"/><path class="cls-9" d="M65.92,207.86a1.07,1.07,0,0,1-2.13,0,1.07,1.07,0,1,1,2.13,0Z"/><path class="cls-9" d="M50.71,203.32a1.07,1.07,0,1,1-1.07-1.07A1.07,1.07,0,0,1,50.71,203.32Z"/><path class="cls-9" d="M41.65,195a1.08,1.08,0,0,1-.9.48,1.07,1.07,0,0,1-1.07-1.06.75.75,0,0,1,.08-.37A8.37,8.37,0,0,1,41.65,195Z"/><circle class="cls-9" cx="70.31" cy="221.78" r="1.07"/><path class="cls-9" d="M44.07,236.9A1.07,1.07,0,1,1,43,235.84,1.06,1.06,0,0,1,44.07,236.9Z"/><circle class="cls-9" cx="54.16" cy="227.73" r="1.07"/><circle class="cls-9" cx="37.55" cy="219.62" r="1.07"/><path class="cls-9" d="M52,251.57a1.07,1.07,0,0,1-2.13,0,1.07,1.07,0,1,1,2.13,0Z"/><path class="cls-9" d="M62.19,195.45a1.07,1.07,0,1,1-1.07-1.07A1.07,1.07,0,0,1,62.19,195.45Z"/><path class="cls-9" d="M72.44,177.48a1.07,1.07,0,1,1-1.07-1.07A1.07,1.07,0,0,1,72.44,177.48Z"/><path class="cls-9" d="M84,162.52a1.07,1.07,0,0,1-2.13,0,1.07,1.07,0,1,1,2.13,0Z"/><path class="cls-9" d="M60.53,184.31a1.07,1.07,0,1,1-1.07-1.07A1.07,1.07,0,0,1,60.53,184.31Z"/><path class="cls-9" d="M73.51,166.82a1.07,1.07,0,1,1-1.07-1.07A1.07,1.07,0,0,1,73.51,166.82Z"/><path class="cls-9" d="M53.09,214.88A1.07,1.07,0,1,1,52,213.81,1.07,1.07,0,0,1,53.09,214.88Z"/><path class="cls-9" d="M39.68,205.45a1.07,1.07,0,1,1-1.06-1.06A1.06,1.06,0,0,1,39.68,205.45Z"/><circle class="cls-9" cx="77.5" cy="202.25" r="1.07"/><circle class="cls-9" cx="99.57" cy="207.86" r="1.07"/><path class="cls-9" d="M99.57,177.48a1.07,1.07,0,1,1-1.07-1.07A1.07,1.07,0,0,1,99.57,177.48Z"/><path class="cls-9" d="M112.4,179.71a1.07,1.07,0,1,1-1.07-1.06A1.07,1.07,0,0,1,112.4,179.71Z"/><path class="cls-9" d="M86.77,216a1.07,1.07,0,1,1-1.07-1.07A1.06,1.06,0,0,1,86.77,216Z"/><circle class="cls-9" cx="76.43" cy="234.93" r="1.07"/><circle class="cls-9" cx="60.05" cy="237.97" r="1.07"/><circle class="cls-9" cx="105.11" cy="221.78" r="1.07"/><path class="cls-9" d="M91.43,229.87a1.07,1.07,0,1,1-1.07-1.07A1.07,1.07,0,0,1,91.43,229.87Z"/><path class="cls-9" d="M69.24,253.7a1.07,1.07,0,1,1-1.07-1.07A1.07,1.07,0,0,1,69.24,253.7Z"/><circle class="cls-9" cx="84.64" cy="248.14" r="1.07"/><circle class="cls-9" cx="100.5" cy="241.86" r="1.07"/><path class="cls-9" d="M94.41,260.22a1.07,1.07,0,1,1-1.07-1.07A1.07,1.07,0,0,1,94.41,260.22Z"/><path class="cls-5" d="M93.24,316.42H75.71c-1.14-3.26,1-6.53.61-9.41-.61-4.86,2.22-2.18,2.22-2.18.5-5.23,7.85-6.21,7.77-3.88-.12,3.43.55,5.55,1.52,7,2,2.85,5.22,2.83,5.78,4.87,0,.2.1.4.13.58C94.28,315.93,93.24,316.42,93.24,316.42Z"/><path class="cls-10" d="M93.74,313.37c-3.63.85-12-.25-12.34-2.36s4.19-3,6.43-3.09c2,2.85,5.22,2.83,5.78,4.87C93.66,313,93.71,313.19,93.74,313.37Z"/><path class="cls-5" d="M21.17,180.63c-1.86-1.7-4.89,1.11-4.89,1.11s1.63,2.42.57,3.4-2.27-1.26-4.35-.28a5.43,5.43,0,0,0-.51.29c-1.62,1-3.31,3-4.67,4.54l-.79.85c-1.59,1.67-5.69,2.65-6.45-1.79s4.23-9.65,9.71-14.44,9-1.94,9-1.94a8.64,8.64,0,0,1,1.24,3.26c0,1.25,1.11,1.87,1.73,3.06A1.5,1.5,0,0,1,21.17,180.63Z"/><path class="cls-10" d="M12,185.15c-1.62,1-3.31,3-4.67,4.54-2.06.49-3.9.34-4.19-1.59-.7-4.66,8.61-10.59,7.86-7.32A5.84,5.84,0,0,0,12,185.15Z"/><path class="cls-6" d="M336.62,308.84a6.73,6.73,0,0,1-2.37-2.71,27,27,0,0,1,0-7.65c.61-3.93-1.1-7.13-6.65-8.33-5.39-1.17-8.6,1.43-7.35,12.28h0c-.82,4.51-1,9.66.88,14h16.62S340.37,310.81,336.62,308.84Z"/><path class="cls-4" d="M351.2,250.36a50.38,50.38,0,0,1-6.11,21.93c-6.22,11.31-13.91,26.82-13.91,26.82s-5.12,5-8.37-3.28c0,0,2.3-28.81,7.57-39.36S351.2,250.36,351.2,250.36Z"/><path class="cls-4" d="M430.86,215.11s9.89,41.61,16.19,52.59c0,0-1.45,4.59-8.27,6,0,0-21.52-31.64-22.91-45S430.86,215.11,430.86,215.11Z"/><path class="cls-11" d="M435.64,224.9c-2.63,6.33-23,6.68-23,6.68l-1.55-2.29-.41-.6L407.54,224s-33.68-33-40.24-30.27h0a3.91,3.91,0,0,0-.55.32c-4.51,3.22-4.93,20.87-10.26,50.48a51.56,51.56,0,0,1-2.5,8.34l-.28.7c-.48,1.26-.83,2.06-.83,2.06-20.56,8.33-27.34-8.13-27.34-8.13s.24-.48.6-1.24c.07-.17.16-.36.25-.56,1.08-2.37,2.8-6.49,2.78-8.67,0-2.39,0-4.68-.06-6.89,0-.2,0-.39,0-.58,0-7.12,0-13.3,0-18.68v-.56c0-2.34.06-4.53.1-6.57v-.58c.18-9.36.48-15.61.8-19.77,0-.19,0-.39.05-.57.56-7,1.16-7.7,1.16-7.7l-4.12-28.63h45s6.75,6.76,15.51,15.69c.18.18.36.35.54.54,3.18,3.23,6.61,6.74,10.05,10.31.14.14.28.27.4.41l4,4.18c.17.17.32.35.49.51,4.51,4.68,8.88,9.29,12.62,13.32a4.75,4.75,0,0,1,.38.4c5.12,5.54,9,10,10.36,12a83.41,83.41,0,0,1,7.87,16.93h0c.08.2.14.38.21.57C435.24,223.54,435.64,224.9,435.64,224.9Z"/><path class="cls-12" d="M337.94,179.43a12.16,12.16,0,0,1-7.94,4c0-.19,0-.39.05-.57a11.5,11.5,0,0,0,7.47-3.78,12.56,12.56,0,0,0,2.57-8.6l.56-.07A13,13,0,0,1,337.94,179.43Z"/><path class="cls-12" d="M388.09,162.74c-.18,0-.34,0-.52,0-5,0-10.22-5.47-10.48-5.74l.4-.39c.06.07,5.26,5.51,10.06,5.56C387.73,162.38,387.91,162.55,388.09,162.74Z"/><path class="cls-12" d="M354,252.88l-.28.7a26.3,26.3,0,0,1-9.17,1.73c-8.88,0-15-5.15-18.4-9,.07-.17.16-.36.25-.56C330.69,250.78,339.92,258.25,354,252.88Z"/><path class="cls-12" d="M366,183.43a46.73,46.73,0,0,1,1.24,10.31,3.91,3.91,0,0,0-.55.32c0-16.76-9.73-29.84-9.84-30l.45-.34a58,58,0,0,1,8.56,19.11,5.12,5.12,0,0,0,2.22-3.19c1.4-5.88-5-15.5-5-15.6l.45-.31c.27.41,6.55,9.92,5.11,16A5.67,5.67,0,0,1,366,183.43Z"/><path class="cls-12" d="M416.08,191.87c-1.65,1.79-3.21,3.33-3.35,3.46l-.3.3-.15-.4c-2.17-5.7-16.16-18-16.31-18.16l-.16-.16,2.33-3.86c.14.14.28.27.4.41l-2,3.24a13.62,13.62,0,0,0,6,.94c.17.17.32.35.49.51a8.53,8.53,0,0,1-1.46.13,15,15,0,0,1-4.29-.75c3.17,2.87,13,12,15.31,17.11.88-.87,2-2,3.06-3.17A4.75,4.75,0,0,1,416.08,191.87Z"/><path class="cls-12" d="M339.32,230.05l-.23,0a27.9,27.9,0,0,1-5.62.58,16.47,16.47,0,0,1-4.38-.52c0-.2,0-.39,0-.58,3.66,1.05,8.56.24,9.67,0l-.93-23.1a7.51,7.51,0,0,1-3.49,3.95,6.67,6.67,0,0,1-3.08.69,9.8,9.8,0,0,1-2.15-.25v-.56a7.26,7.26,0,0,0,5-.38,7.55,7.55,0,0,0,3.57-4.65c-1.85.28-5.59-.67-8.45-1.54v-.58c3.08.93,7.24,2,8.74,1.49l.36-.13Z"/><path class="cls-12" d="M434.52,221.41a28.16,28.16,0,0,1-20,8.06,32.82,32.82,0,0,1-3.36-.18l-.41-.6c12.38,1.42,20.14-4.38,23.59-7.85C434.39,221,434.45,221.22,434.52,221.41Z"/><path class="cls-13" d="M380.34,24.77s-1.23-2.84-6.45-2.84c-4,0-5.56,2.22-5.56,2.22-2.41,7-5,34-5.92,34.91-.47.49-30.29,20.58-30.29,20.58,16.18.3,26.28,20.25,26.28,20.25.52-6.55,18.8-32.53,19-34.85C377.77,60.67,385.5,41.15,380.34,24.77Z"/><path class="cls-13" d="M328.56,165.55s-.15,5.62,1.67,6a51.11,51.11,0,0,0,33.64-3c17-7.74,20-13.47,15-17.73S328.56,165.55,328.56,165.55Z"/><path class="cls-14" d="M321.74,83.52s-15.49-1.83-24.37,2c0,0-2.48,11,9.72,35.59s9.38,40.1,23.14,45.93c12.2,5.17,48.17-10.22,49.3-15.32,2.84-12.85-19.15-35.39-20.54-48.46S344.83,70.57,321.74,83.52Z"/><path class="cls-13" d="M297.37,85.53c-10.83,3.85-23,16-23,21.86s10.16,8.12,10.16,8.12l16.68-8.12s4.77-3.33,1.73-13S297.37,85.53,297.37,85.53Z"/><path class="cls-6" d="M341.85,96.37a18.33,18.33,0,0,1-9.74-3,5.19,5.19,0,0,1-2.37-3.19c-.61-3.85,3.13-5.8,3.29-5.88l.51,1c-.13.06-3.19,1.67-2.7,4.72a4.13,4.13,0,0,0,1.91,2.46,16.43,16.43,0,0,0,10.76,2.6,3.67,3.67,0,0,0,2.76-1.51,2.57,2.57,0,0,0,.07-2l1-.44a3.69,3.69,0,0,1-.11,2.94,4.68,4.68,0,0,1-3.54,2.09A11,11,0,0,1,341.85,96.37Z"/><path class="cls-6" d="M328.12,108.08c-2.4,0-6.37-1-6.93-4.93a19.71,19.71,0,0,1,.06-5.14c.24-2.17.42-3.88-.84-5.94-2.08-3.38-4.92-3.61-5-3.62l.06-1.11c.14,0,3.52.25,5.93,4.15,1.46,2.38,1.23,4.45,1,6.64a18.55,18.55,0,0,0-.06,4.86c.6,4.25,6,4,6.24,4l.06,1.11Z"/><path class="cls-13" d="M331.49,88.15s8.19-5.57,6.24-11.61-28.31-5.62-35.11,1.6,14.71,12,14.71,12C319,86.79,329.64,86.42,331.49,88.15Z"/><path class="cls-15" d="M316.77,87.21c-3.89-1.32-6.19-4.12-5.36-7.36s17.54-3.33,20.71-.74S330.82,92,316.77,87.21Z"/><path class="cls-3" d="M314.92,78.11s3.44,5.87,1.85,9.1c0,0,11.79,4.07,11.79-2.53,0,0-2.22-4.94-1.38-8.14Z"/><path class="cls-16" d="M311,73s-5.8-9.28-5.26-18.14c.27-4.44,2.55-6.17,2.55-6.17s-1.84-2.56.13-6.47c0,0,2.73,3.16,12.31,2.16C330,43.4,330.87,50,330.87,50c6.6,1,2.15,20.95-2.46,23Z"/><path class="cls-4" d="M308.53,64.41s-3.33-3.32-3.74.56c-.48,4.5,3.61,6.32,4.41,4.88S308.53,64.41,308.53,64.41Z"/><path class="cls-4" d="M331.85,64.65s3.33-3.33,3.74.56c.47,4.5-3.62,6.31-4.41,4.88S331.85,64.65,331.85,64.65Z"/><path class="cls-4" d="M319.84,80.71c-7.39,0-11.56-4.82-11.56-19.3,0-7.47,3.8-12,12.07-12s11.77,4.58,11.77,12C332.12,77,327.47,80.71,319.84,80.71Z"/><path class="cls-7" d="M329.67,66.57a1.75,1.75,0,0,1-3.37.59,1.75,1.75,0,0,1,3.37-.59Z"/><path class="cls-7" d="M314.47,67a1.75,1.75,0,1,1-1.61-1.47A1.57,1.57,0,0,1,314.47,67Z"/><path class="cls-16" d="M326.41,58.81a.37.37,0,0,1-.28-.07,4.25,4.25,0,0,0-3-.58.38.38,0,0,1-.44-.29.39.39,0,0,1,.3-.44,5,5,0,0,1,3.55.73.37.37,0,0,1,.07.51A.35.35,0,0,1,326.41,58.81Z"/><path class="cls-16" d="M312.27,58.86a.36.36,0,0,1-.24-.13.38.38,0,0,1,.05-.52,5,5,0,0,1,3.53-.83.37.37,0,1,1-.11.73,4.31,4.31,0,0,0-2.95.67A.32.32,0,0,1,312.27,58.86Z"/><path class="cls-8" d="M325.65,63c0,.92-.41,1.67-.92,1.67s-.93-.75-.93-1.67.42-1.66.93-1.66S325.65,62.07,325.65,63Z"/><path class="cls-8" d="M315.78,63c0,.92-.41,1.67-.92,1.67s-.92-.75-.92-1.67.41-1.66.92-1.66S315.78,62.07,315.78,63Z"/><path class="cls-16" d="M310.54,51A50.45,50.45,0,0,0,329.71,53s2.41,3,2.11,13.59c0,0,6.61-19.07-12.68-19.07S308.53,66.2,308.53,66.2,307,54.54,310.54,51Z"/><path class="cls-7" d="M320.3,67.92l-.55-.56,1.46-1.45c-1.41-2-1.41-6.64-1.41-6.85h.79s0,5,1.44,6.6l.26.28Z"/><path class="cls-8" d="M315.4,70.33s7.27.31,10.94-.66a4.87,4.87,0,0,1-5,5.55C315.4,75.5,315.4,70.33,315.4,70.33Z"/><path class="cls-6" d="M346.48,90.33c1.39-.26,1.25,3.37,0,2.32S345.09,90.59,346.48,90.33Z"/><path class="cls-6" d="M329.74,107.93c-.21,1.39-3.6.07-2.19-.76S330,106.53,329.74,107.93Z"/><path class="cls-3" d="M314.84,115.51s-2.2,5.65-2.07,8.84,1.17,2.78,1.17,2.78a3.43,3.43,0,0,0-2,2.49c-.32,1.84,4.33,3.2,4.65,3.2s3.6-1.25,3.6-1.25l.68-10.45L318,119.3Z"/><path class="cls-4" d="M316.6,114.77a45.18,45.18,0,0,1,5.56,4c1.56,1.53.67,13.32,0,13.88s-5.78,1.7-6.76,1.06.38-4.12.38-4.12,2.57-.55,2.2.42a2.54,2.54,0,0,0,0,1.8l1.06-.41a12.21,12.21,0,0,1,0-4.58c.51-1.94-3.62-4-4.12-7.55S316.6,114.77,316.6,114.77Z"/><path class="cls-13" d="M275,109c-1.28-5.55,4.23-7.51,11.88-6.57,8.89,1.1,27.13,3.42,31.09,13.05,0,0,1.3,3.79-2.06,5.61C306.56,126.22,277.43,119.45,275,109Z"/><path class="cls-15" d="M302.8,105.35s-10.59-4.4-15.86-4.84S294.23,104.67,302.8,105.35Z"/><path class="cls-4" d="M382.15,10.05A23.78,23.78,0,0,0,380,14.5c-.56,3-.88,4.62-1.92,6s-.49,3.77-.49,3.77-4,2.08-7.44-.49c0,0,.36-2.38,0-3.06-.7-1.36-2.94-2.08-3.71-4.81a21.26,21.26,0,0,0-3.06-5.79s.65-1.43,1.85-.56,2,3.06,2.63,3.29l.4.09h0a1.64,1.64,0,0,0,1.32-.35l.08-.06c1.1-1.28,1.35-5,1.31-6.71-.07-2.33,0-5.55,1.44-5s.12,1.85,1.22,7l.53.06c.1.37,1.08-3.12,1.31-6.39.17-2.26,1.65-1.42,2-.71s-.17,3-.27,4.58c-.07,1.08-.16,2.2-.22,2.87l.62.34c2.25-3.91,1.48-5.53,2.79-5.61s.83,3.22.13,4.48a12,12,0,0,0-.82,2.79c2.3-2.66,2-4.05,3.1-3.88S383,9.14,382.15,10.05Z"/><path class="cls-3" d="M372.22,16.17c-.77-2.15-3.55-3.12-3.89-3.23a1.64,1.64,0,0,0,1.32-.35A3.89,3.89,0,0,1,372.22,16.17Z"/><path class="cls-6" d="M324,300.14s-1.54-3.14-.17-4.48,3,1.15,5.32.59,2.88-2.21,3.49.05S332.51,305.69,324,300.14Z"/><path class="cls-1" d="M332.8,300s-6.28,2.23-9.54,0l.83,2.72s6.83.72,7.77-1Z"/><path class="cls-1" d="M332.72,303.38s-5.76-.8-8.53.63v1.35s7.5-1.75,9.92,0Z"/><path class="cls-1" d="M323.91,308.16a5.24,5.24,0,0,1,4.62-2.91,9.1,9.1,0,0,1,5.86,1.73S328.84,304.69,323.91,308.16Z"/><path class="cls-6" d="M472,270.38A46.64,46.64,0,0,1,445.92,288c-4.36-3.49-4.47-7.62-4.47-7.62s-4.21-3.75-4.76-5.55,3.6-7.22,6.1-6.66a5.07,5.07,0,0,1,3.18,2.56c-2.07-4.65-.41-6.27,2.52-5.87s.16,1.13,2.35,3.59a3.17,3.17,0,0,0,.52.45,3.6,3.6,0,0,0,1.42.57,6.69,6.69,0,0,0,1.57.08l.89-.09A12.25,12.25,0,0,0,457,269a14.44,14.44,0,0,0,2.81-1.21c3.82-2.08,5.43-2.79,8.34-2s2.85,2.93,2.85,2.93Z"/><path class="cls-1" d="M472,270.38A46.64,46.64,0,0,1,445.92,288c7.68-3.3,14.73-7.62,19.54-12.94S472,270.38,472,270.38Z"/><path class="cls-1" d="M451.36,268.86a3.6,3.6,0,0,0,1.42.57,3.74,3.74,0,0,0-3.13,3.2l-1.24-.4C448.68,269.09,451.15,268.87,451.36,268.86Z"/><path class="cls-1" d="M453.33,272.94l-1.3,0a3.43,3.43,0,0,1,.75-3.55,6.69,6.69,0,0,0,1.57.08A3.71,3.71,0,0,0,453.33,272.94Z"/><path class="cls-1" d="M456.54,272.23l-1.29.16a3.55,3.55,0,0,1,0-3A12.25,12.25,0,0,0,457,269,3.81,3.81,0,0,0,456.54,272.23Z"/><path class="cls-13" d="M332.92,135.31s2.85,15.39-2.92,21.52-1.95,1.09-.23-6.81S330.18,133.79,332.92,135.31Z"/><path class="cls-13" d="M359.52,128.45s9.09,3,13.85,11.38C373.37,139.83,367,126.16,359.52,128.45Z"/><path class="cls-4" d="M123.47,14.14a23.27,23.27,0,0,1,4.73,1.41c2.58,1.59,4,2.45,5.72,2.6s2.41,3.08,2.41,3.08,6.72,1.47,7.1-2.77c0,0-3.76-5.32-4-6-.53-1.43.44-3.57-1.07-6A21.43,21.43,0,0,1,136.1.28s-1.5-.47-1.66,1,.95,3.53.67,4.16a2.08,2.08,0,0,1-.2.36l0,0a1.62,1.62,0,0,1-1.14.75.16.16,0,0,1-.1,0c-1.68,0-4.64-2.37-5.85-3.53-1.68-1.62-4.13-3.71-4.68-2.29s1.28,1.33,4.36,5.59l-.31.44c.2.32-3-1.3-5.62-3.32-1.78-1.39-2.16.26-1.85,1s2.3,1.86,3.58,2.88l2.27,1.76-.16.69c-4.4-1-5.09-2.62-6-1.7s1.83,2.78,3.23,3.1a13,13,0,0,1,2.62,1.26c-3.51-.07-4.37-1.19-4.95-.3S122.26,14.12,123.47,14.14Z"/><path class="cls-3" d="M134.67,10.89c-1.06-2,.08-4.73.22-5.06a1.62,1.62,0,0,1-1.14.75A3.91,3.91,0,0,0,134.67,10.89Z"/><path class="cls-4" d="M321.33,14.14a23.33,23.33,0,0,0-4.72,1.41c-2.58,1.59-4,2.45-5.73,2.6s-2.4,3.08-2.4,3.08-6.73,1.47-7.11-2.77c0,0,3.76-5.32,4-6,.53-1.43-.44-3.57,1.07-6A21.43,21.43,0,0,0,308.71.28s1.49-.47,1.65,1-.94,3.53-.67,4.16a2.12,2.12,0,0,0,.21.36v0a1.64,1.64,0,0,0,1.14.75.17.17,0,0,0,.1,0c1.69,0,4.64-2.37,5.85-3.53,1.69-1.62,4.13-3.71,4.68-2.29s-1.28,1.33-4.35,5.59l.31.44c-.21.32,3-1.3,5.62-3.32,1.78-1.39,2.15.26,1.84,1s-2.3,1.86-3.58,2.88L319.25,9.1l.17.69c4.4-1,5.08-2.62,6-1.7s-1.83,2.78-3.23,3.1a12.94,12.94,0,0,0-2.61,1.26c3.51-.07,4.36-1.19,4.95-.3S322.54,14.12,321.33,14.14Z"/><path class="cls-3" d="M310.13,10.89c1.07-2-.07-4.73-.22-5.06a1.64,1.64,0,0,0,1.14.75A3.91,3.91,0,0,1,310.13,10.89Z"/><path class="cls-2" d="M262.23,218l-12.92-80-25.87,2.89L197.58,138l-12.92,80-6.21,77.58s2,6.43,14.88,2c0,0,9.57-72,11-73.54s16.69-48.59,16.69-48.59h4.75s15.21,47,16.69,48.59,11.05,73.54,11.05,73.54c12.9,4.44,14.88-2,14.88-2Z"/><path class="cls-17" d="M215.3,60.53c1.63,1.59,9.67,4.46,13.91,0l2.88,2.83s-3.28,7.71-9,8-9.92-6.86-9.92-6.86Z"/><path class="cls-17" d="M238.06,59.66c9.62-4.15,40.71-15.16,40.71-15.16s20.9-26.18,25.16-30.06c0,0,4.63.83,6,6.59,0,0-13.46,28.81-20.77,37.06s-44.36,26.09-44.36,26.09Z"/><path class="cls-16" d="M204.38,59.06c2.87-1.81,17.24,7.81,17.24,7.81s18.68-9.92,23.07-8c0,0,3.95,5.29,5.54,18.88s1.69,69.53,1.69,69.53a97.41,97.41,0,0,1-29.55,4.45c-19.37,0-29.79-5.56-29.79-5.56S189.12,68.72,204.38,59.06Z"/><path class="cls-3" d="M216.05,57.61s2.07,6.51,0,9c0,0,2.15,4.51,6,4.71,4.46.23,6-4.71,6-4.71s-2.36-6.29,0-8.5Z"/><path class="cls-11" d="M210.9,51.2s-4.36-8.38-3.5-17.34,14.36-11,23.46-6.61c0,0-2.7-2.64-1.65-3.37s2.88,4,2.88,4,2.88-.88,3.32,0-2.95,1.36-2.95,1.36,5.87,3.26.39,20.58Z"/><path class="cls-4" d="M210.24,45.89s-3.25-3.24-3.65.55c-.46,4.39,3.53,6.16,4.31,4.76S210.24,45.89,210.24,45.89Z"/><path class="cls-4" d="M233,46.12s3.25-3.24,3.65.55c.46,4.39-3.53,6.16-4.31,4.76S233,46.12,233,46.12Z"/><path class="cls-4" d="M221.27,61.79C214.06,61.79,210,57.09,210,43c0-7.28,3.7-11.75,11.77-11.75S233.24,35.69,233.24,43C233.24,58.14,228.71,61.79,221.27,61.79Z"/><path class="cls-7" d="M230.85,48a1.71,1.71,0,0,1-3.28.58A1.54,1.54,0,0,1,229,47,1.52,1.52,0,0,1,230.85,48Z"/><path class="cls-7" d="M216,48.4A1.7,1.7,0,1,1,214.46,47,1.52,1.52,0,0,1,216,48.4Z"/><path class="cls-11" d="M227.56,40.68a.36.36,0,0,1-.26-.11,4.1,4.1,0,0,0-2.77-1,.37.37,0,0,1-.38-.35.36.36,0,0,1,.35-.37,4.76,4.76,0,0,1,3.32,1.22.36.36,0,0,1,0,.51A.35.35,0,0,1,227.56,40.68Z"/><path class="cls-11" d="M214,40.68a.35.35,0,0,1-.25-.1.37.37,0,0,1,0-.51,4.76,4.76,0,0,1,3.32-1.22.36.36,0,0,1,.35.37.37.37,0,0,1-.37.35,4.1,4.1,0,0,0-2.78,1A.36.36,0,0,1,214,40.68Z"/><path class="cls-8" d="M226.94,44.5c0,.9-.41,1.62-.9,1.62s-.9-.72-.9-1.62.4-1.62.9-1.62S226.94,43.61,226.94,44.5Z"/><path class="cls-8" d="M217.31,44.5c0,.9-.4,1.62-.9,1.62s-.9-.72-.9-1.62.41-1.62.9-1.62S217.31,43.61,217.31,44.5Z"/><path class="cls-8" d="M217.31,54.08s6.36.81,9.63-.75c0,0-1.85,4.32-5.32,3.93A4.94,4.94,0,0,1,217.31,54.08Z"/><path class="cls-11" d="M232.49,47.72s-.22-7.83-3.28-13.86c0,0-5.37,2.49-6.56,1.9s1.13-1.9,1.13-1.9-8.87,2.93-9.41,2.34,2.94-2.34,2.94-2.34l-5.52,1.9s-1.71,7.05-1,12c0,0-2.38-4.1-2.67-6.93s.95-10.9,9.28-11.48,13,1.3,15.06,5.12S234.27,43,232.49,47.72Z"/><path class="cls-7" d="M222.52,51.81a6.52,6.52,0,0,1-1.62-.24l.2-.74c.76.21,1.94.34,2.2,0,.09-.1.06-.35-.1-.67-1-2.22-1.26-7.82-1.26-8.06l.76,0c0,.06.22,5.69,1.2,7.76a1.36,1.36,0,0,1,0,1.5A1.77,1.77,0,0,1,222.52,51.81Z"/><path class="cls-18" d="M230.5,62.59s13,40.48,14.28,73.42c0,0,4.7,1.29,10-5.92s2.15-64.38-8-73.9C246.78,56.19,242.17,55.14,230.5,62.59Z"/><path class="cls-17" d="M232.62,69.67s2.34-5.42,1.3-9.14-4.71,0-4.71,0S230.7,66.62,232.62,69.67Z"/><path class="cls-17" d="M206.45,59.66c-9.62-4.15-40.71-15.16-40.71-15.16s-21-26.94-25.21-30.83a12,12,0,0,0-5.64,9.16s13.17,27,20.48,35.26,44.36,26.09,44.36,26.09Z"/><path class="cls-18" d="M214,62.59S201,103.07,199.73,136c0,0-4.7,1.29-10-5.92s-2.15-64.38,8-73.9C197.73,56.19,202.34,55.14,214,62.59Z"/><path class="cls-17" d="M211.89,69.67s-2.34-5.42-1.3-9.14,4.71,0,4.71,0S213.81,66.62,211.89,69.67Z"/><path class="cls-12" d="M279.94,316.42H254.05c-1.81-10.29,1.08-20.59,1.08-20.59l11.83-2c1.08,6.5,2.38,9.07,4.18,10.39h0c1.31.95,2.87,1.27,4.83,1.94a6.19,6.19,0,0,1,4,3.72A11,11,0,0,1,279.94,316.42Z"/><path class="cls-11" d="M280,309.85c-6.38.8-20.4,2.17-19.55-1.53.71-3.09,6.63-3.92,10.72-4.13h0c1.31.95,2.87,1.27,4.83,1.94A6.19,6.19,0,0,1,280,309.85Z"/><path class="cls-12" d="M193.23,316.42H167.34a12.08,12.08,0,0,1-.45-5,6.29,6.29,0,0,1,4.41-5.31c2.24-.77,4-1.06,5.38-2.38s2.67-4.11,3.64-9.95l11.83,2S195,306.13,193.23,316.42Z"/><path class="cls-11" d="M166.89,311.44a6.29,6.29,0,0,1,4.41-5.31c2.24-.77,4-1.06,5.38-2.38,3.27,1,7.86,2.86,9.28,5.67C187.93,313.27,172.8,312.66,166.89,311.44Z"/><path class="cls-5" d="M379.11,314.57a14.28,14.28,0,0,1-.11,1.85H347.54c0-.62,0-1.24,0-1.85a57.61,57.61,0,0,1,3-15.37l7.86-3.37a12.6,12.6,0,0,0,4.61,8.33,11.62,11.62,0,0,0,1.8,1.15c.29.16.58.3.88.43a15.13,15.13,0,0,0,2,.75,49.8,49.8,0,0,0,7.55,1.32C378.6,308.33,379.11,312.21,379.11,314.57Z"/><path class="cls-19" d="M379.11,314.57a14.28,14.28,0,0,1-.11,1.85H347.54c0-.62,0-1.24,0-1.85Z"/><path class="cls-19" d="M364.81,305.31l-4.37,1.4-.92-1.6,3.49-.95A11.62,11.62,0,0,0,364.81,305.31Z"/><path class="cls-19" d="M367.69,306.49l-2.94,1.95-1.81-.71,2.75-2A15.13,15.13,0,0,0,367.69,306.49Z"/><path class="cls-5" d="M258.93,314.57a7.48,7.48,0,0,1-.35,1.85H237.63a9,9,0,0,1-.59-1.85c-2.07-10,11.86-22.29,11.86-22.29l4.42,5.89s-.51,9.44,3.23,11.4A4.78,4.78,0,0,1,258.93,314.57Z"/><path class="cls-19" d="M237,314.57h21.89a7.48,7.48,0,0,1-.35,1.85H237.63A9,9,0,0,1,237,314.57Z"/><path class="cls-19" d="M255.59,308.82s-8.83-2-12.85.6V308S250.16,304.35,255.59,308.82Z"/><path class="cls-19" d="M253.84,306.58s-5.64-2.57-11.1,0l.62-1.47S249.89,302.65,253.84,306.58Z"/><path class="cls-20" d="M369.62,225.44c0,8.43-7.48,77.13-7.48,77.13a43.78,43.78,0,0,1-13.48-.76c-2.05-34.81-2.25-64.76-2.25-64.76l-35.86-26.88-.09-.06s-.13.61-.38,1.7c-1.77,7.88-9.29,40.9-12.42,48.46-3.56,8.61-42.53,44.84-42.53,44.84-7.24-1-13.38-6.24-13.38-6.24,14-23.2,33.06-46.47,33.06-46.47,1.49-8.36,2.55-27,3.19-40.86l0-.65c.42-9.41.63-16.52.63-16.52l-6.57-13.47,41.76-15.35,9.36,12s2.14,2,5.51,5.16l.47.44C341.73,195,369.62,221.66,369.62,225.44Z"/><path class="cls-9" d="M278,211.54l0-.65c8.79-4.77,7.32-12.39,7.29-12.46l.55-.11C285.89,198.39,287.47,206.58,278,211.54Z"/><path class="cls-9" d="M309.91,204.79a46.7,46.7,0,0,1,.64,5.38l-.09-.06s-.13.61-.38,1.7c-.38-13.06-5.77-20.78-5.84-20.87l.46-.32a37.89,37.89,0,0,1,5.09,13.54c6.36-5.64.14-17.2.07-17.31l.49-.27C310.42,186.7,317,198.94,309.91,204.79Z"/><path class="cls-9" d="M329.19,183.13l0,0a2.44,2.44,0,0,1-.87.14c-3.07,0-8.24-4.3-8.48-4.51l.36-.43c1.68,1.42,6.36,4.83,8.56,4.34Z"/><path class="cls-1" d="M275,109s12.71-2,19.07,2,14.72,14.65,14.72,14.65-9.92,1.31-11,8.05C297.76,133.74,290.55,116.57,275,109Z"/><path class="cls-6" d="M255.91,115.65c-5.38,2.91-14.36,13.81-14.76,20.52-.4,6.54,4.45,12.56,7.71,17.67,10.2,16,20.93,30.06,25.49,48.78,0,.12,23.31,9.36,50.64-23.49,0,0-15.44-20.78-20.78-38.47-2.17-7.2-4.38-14.85-8.55-21.19A22.68,22.68,0,0,0,275,109C268.09,109.59,261.2,112.79,255.91,115.65Z"/><path class="cls-3" d="M253.65,109s3.44,5.87,1.85,9.1c0,0,11.79,4.07,11.79-2.53,0,0-2.22-4.94-1.38-8.14Z"/><path class="cls-3" d="M279.86,149.17s-6.56,1.86-8.22,4.18-3.13,7.53-3.13,7.53h11.35L282,157l2.5-5.23Z"/><path class="cls-5" d="M269,102.41s4.61-1.93,1.63-15.78c-2-9.18-4.82-10.55-6.66-10.63,0,0-2.25-3.39-10-1.77a14.5,14.5,0,0,0-11.48,10.36c-2,6.26,2,19.69,7.12,21Z"/><path class="cls-4" d="M270.1,93.05s2.9-4,4-.06c1.27,4.62-2.68,7.21-3.76,5.85S270.1,93.05,270.1,93.05Z"/><path class="cls-4" d="M245.82,97.31s-4-2.9-3.81,1.23c.28,4.77,4.86,6,5.44,4.33S245.82,97.31,245.82,97.31Z"/><path class="cls-4" d="M261.11,112c7.71-1.27,11.23-7,8.74-22.12-1.29-7.79-6-11.92-14.67-10.49S243.7,86.19,245,94C247.66,110.2,253.15,113.31,261.11,112Z"/><path class="cls-7" d="M248.42,98.94a1.85,1.85,0,1,0,1.82-1.42A1.65,1.65,0,0,0,248.42,98.94Z"/><path class="cls-7" d="M264.35,96.75a1.85,1.85,0,1,0,1.43-1.81A1.65,1.65,0,0,0,264.35,96.75Z"/><path class="cls-8" d="M250.59,90.53a.46.46,0,0,1-.22-.06.4.4,0,0,1-.1-.55A5.2,5.2,0,0,1,253.6,88a.38.38,0,0,1,.44.33.39.39,0,0,1-.34.44,4.48,4.48,0,0,0-2.79,1.56A.37.37,0,0,1,250.59,90.53Z"/><path class="cls-8" d="M265.1,88.14a.4.4,0,0,1-.23-.08,4.44,4.44,0,0,0-3.14-.58.39.39,0,1,1-.15-.77,5.17,5.17,0,0,1,3.76.73.39.39,0,0,1-.24.7Z"/><path class="cls-8" d="M252,94.51c.15.95.71,1.66,1.24,1.57s.84-.93.68-1.89-.72-1.66-1.25-1.57S251.84,93.55,252,94.51Z"/><path class="cls-8" d="M262.29,92.81c.16,1,.72,1.66,1.25,1.57s.83-.93.67-1.89-.71-1.66-1.24-1.57S262.13,91.85,262.29,92.81Z"/><path class="cls-8" d="M265.18,101.5s-6.69,1.79-10.4,1.08c0,0,2.57,3.23,6.23,2.3S265.18,101.5,265.18,101.5Z"/><path class="cls-2" d="M265.49,82.87s-8.7,6.3-19.62,6.78l.31,9.72s-10.17-18.75,10-22.08,14.27,17.63,14.27,17.63S269.78,85.89,265.49,82.87Z"/><path class="cls-7" d="M258.38,98.89l-.06-.84s1.18-.09,1.48-.81c.12-.3-.37-1.24-.81-2.07a15.81,15.81,0,0,1-1.68-4.2l.83-.16a15,15,0,0,0,1.6,4c.64,1.23,1.11,2.12.83,2.78C260.07,98.77,258.45,98.88,258.38,98.89Z"/><path class="cls-13" d="M270.21,82.89c-14.63-6.35-28.44,6.82-28.44,6.82S240.16,79,243,76.54a17.1,17.1,0,0,1,2.34-1.74c6.46-4.07,15.06-4,19-2.6a4.82,4.82,0,0,1,1.79,1C268.44,75.62,270.21,82.89,270.21,82.89Z"/><path class="cls-6" d="M268.44,80.52a34.63,34.63,0,0,0-23.75,5.15s-.73-6.88.63-10.87c6.46-4.07,15.06-4,19-2.6C266.62,74.82,268.44,80.52,268.44,80.52Z"/><path class="cls-15" d="M243,88.46s2-8.28,4.57-10.61c4.37-3.88,16.64-5.21,23.09-2.88s0,9.38,0,9.38S260.36,77,243,88.46Z"/><path class="cls-4" d="M262,143.44a41,41,0,0,0,13.57,12.36s10.71-9.29,24.58-8.45c0,0-11.5,20.75-21.37,23-5.19,1.21-24-11.22-24-11.22S258.53,146,262,143.44Z"/><path class="cls-1" d="M243.46,129.34c4.6-7.49,15.2,3.58,18.81,11.48s6.24,9.57,6.24,9.57-10.59,4.43-10.52,12.37C258,162.76,233.43,145.67,243.46,129.34Z"/><path class="cls-3" d="M275.53,152.38s6.46-6.33,27.68-14.59l-2.74-8.62c2.43-3.21,6.91-3.21,6.91-3.21s10.87,15.36,9,19.94C315.21,148.77,292.53,151.77,275.53,152.38Z"/><path class="cls-4" d="M298.78,139.85a5.53,5.53,0,0,1,1-2c.78-1.11.57-3.12.85-3.75s1.95-3.17,3.06-3.67,2.56-1.31,2.87.1-2,1-3,3a8.94,8.94,0,0,1,4-.31c1.78.43,2.29,2.06.08,2a9.83,9.83,0,0,0-4,1.21s2.3.34,1.93,1.4C305,139.33,302.2,138.42,298.78,139.85Z"/><path class="cls-21" d="M141.82,168.76c1.9,4.86,9.67,13.19,9.67,13.19s19-11.39,27.74-6.6,15.72,7.71,21.4,5.63S182,134.6,182,134.6l-31.58-12s-.69,8-4.29,9.4-7.46,14.61-7.2,17.1S141.82,168.76,141.82,168.76Z"/><path class="cls-3" d="M177.35,182.23s-8.14,16-24.95,36.41c0,0-1.73,24.31-46.18,62.55l-4.66-3.66s26.48-41.47,31.77-54.18-2.92-24.37,21.44-56.53Z"/><path class="cls-12" d="M151.43,154c-7,13.43-9.36,30.59-9.36,30.59l-3.19,8a89.67,89.67,0,0,0,24.4,8.33l5.24-13.88Z"/><path class="cls-4" d="M188,181s3.47,17.58,2.9,44c0,0,13.68,20.17,2.39,77.72h-5.92s-4.84-49-8.54-62.23-17.36-17.34-18.1-57.68Z"/><path class="cls-11" d="M191.46,199.85s-11.13,2-30.75,1.07l-.31-2.2-.08-.57-2-14.3a38.19,38.19,0,0,1-3.83-6.13c-.23-.44-.46-.9-.68-1.38-2.64-5.63-5-13.81-2.35-22.35l4.14.19.58,0,13.85.63.59,0,4.55.21.71,0,3,.13s15,13.51,12.33,38.49l.19,3.48,0,.56Z"/><path class="cls-12" d="M156.15,154.22c-.39,1.14-3,9.62-1.69,23.5-.23-.44-.46-.9-.68-1.38-1-12.69,1.29-20.6,1.79-22.16a2.33,2.33,0,0,0,.1-.29l.52.19S156.17,154.14,156.15,154.22Z"/><path class="cls-12" d="M191.35,197.79c-3.94,1-10.62,1.29-17,1.29-5.7,0-11.11-.23-14-.36l-.08-.57c5,.24,18.11.75,26.57-.17l-.54-8.93a56.3,56.3,0,0,0-6.07-25.49c-7.7-1.39-9.82-7.1-10.28-8.71l-.1-.42.55-.09a5,5,0,0,0,.14.54,11.85,11.85,0,0,0,9.37,8.05,54.92,54.92,0,0,0-4.82-7.84c-.24-.33-.4-.52-.41-.53l.42-.35a10.25,10.25,0,0,1,.7.92c2.58,3.49,11.27,16.65,11.05,33.89l.54,8.9a29.38,29.38,0,0,0,3.89-.69Z"/><path class="cls-20" d="M163,93.75c-4.42-2.43-36.27,10.06-36.27,10.06s-4.71,8.4-1.77,11.7,13.35,1.84,16.55,0,11.64-3.24,11.64-3.24Z"/><path class="cls-14" d="M191.14,67.24a16.66,16.66,0,0,1,9,10.12c2.4,7.58-4.79,26.77-2.3,35.58s2.1,25.48-5.67,29-23.68-2.77-27.1-12.39-1.94-46.08,4.63-58.48S189.56,64.91,191.14,67.24Z"/><path class="cls-20" d="M183.59,99.94c1.73,1.87,6.19-1.46,6.19-1.46s-.09,16.53-4.9,17.8-17-13-16.55-16.91S179.74,95.79,183.59,99.94Z"/><path class="cls-2" d="M165.06,95.81a34,34,0,0,0,13.33,6.09c8.47,2,13.06-2,17.39,3.44,6.5,8.2-4.07,23.31-9.64,31.14-2.07,2.92-6.45,11-7.34,18.78,0,0-14.69,4.27-27.37-1.27l-.94-18S142.5,111.66,165.06,95.81Z"/><path class="cls-20" d="M180.25,113.35s6.72-16,8.66-17,6.88,1.43,7.87,3.62,0,7,0,7S191.48,100.86,180.25,113.35Z"/><path class="cls-9" d="M212.41,181c-3,6.25-10.54,8.05-10.54,8.05s-.57-.86-1.52-2.42a4.92,4.92,0,0,1-.31-.51c-5.9-9.56-23.92-40.15-23.56-56.05a41.53,41.53,0,0,1,12.81-29.45c6.29,1.5,8.28,3.22,8.28,3.22a77.85,77.85,0,0,1,.18,23.83c-1.95,13-5.48,16.44-3.7,17.42s0,2.91,0,2.91,10.45,14.55,12.4,19.08c1.27,2.95,3.42,8,4.77,11.1.08.23.17.45.26.65C212.05,180.12,212.41,181,212.41,181Z"/><path class="cls-4" d="M194.27,103.81s-7.48,5.54-3.13,14l20.74,21.46c-11.38,12.13-12.51,17.11-20.74,22.7l3.13,4.83s28.81-22.14,28.85-27.53C223.14,137,205.52,109.08,194.27,103.81Z"/><path class="cls-4" d="M190.69,162a62.61,62.61,0,0,0-6.44,1.06c-2.49.62-5.81,1.24-5.91,1.76s5.49,0,5.49,0-4.56,1.87-4.66,2.6,5.81-.53,5.81-.53-3.74,2.29-3.53,2.91,4.81-.94,4.81-.94a14.57,14.57,0,0,1-1.75,3.22s.89.49,2.7-1.52,4.7-1.36,7-3.14S192.77,161.72,190.69,162Z"/><path class="cls-9" d="M169.5,98.47s-5.69,3.68-9.28,12.56-14.94,25.59-17.59,29.91-.81,27.82-.81,27.82S138.49,154.51,137,149s4.78-19.27,5.72-20,5.75.61,4.83-5,12-29.57,15.43-30.25C163,93.75,168.51,94.79,169.5,98.47Z"/><path class="cls-9" d="M151.91,99.67a3.94,3.94,0,0,1-.35.55,14.46,14.46,0,0,1-3.68,3.34s-4.35,6.08-4.39,6.78-7.54,6-10.87,5.93h0a1.66,1.66,0,0,1-1.1-.38c-2-1.86,6.73-17.52,8.65-20.89.12-.23.22-.39.29-.5a1.11,1.11,0,0,1,.08-.15s-1.54-5.71,4.86-4.64c5.32.88,6.37,5.11,6.93,7.94A3.07,3.07,0,0,1,151.91,99.67Z"/><path class="cls-4" d="M129.58,105.59c4.39-5.78,19.85-17,28-20.29l2,3.78s-15.73,13.83-19.43,19.75-8.27,8.36-12.64,6.39S128.65,106.8,129.58,105.59Z"/><path class="cls-20" d="M150.37,98.48l-.83,1-.42.48-1.38,1.58s-3.46,4.2-3.33,5.89c.1,1.21-6.57,6.62-11.79,8.88-2.12.92-4,1.32-5.11.69-3.77-2.18-2.93-8.72-.79-13.15C128.59,100,136.84,95,139,93.74a4.33,4.33,0,0,1,.49-.29h0l.79-3.06s2.87-1.74,5.14-.67c0,0-5,.21-4.18,2.15S149,98.41,150.37,98.48Z"/><path class="cls-4" d="M168.51,82.46c-5,2.07-4.3,6.62-8.91,6.62-2.85,0-3.23-3.27-3.23-3.27a35.14,35.14,0,0,0,2.29-9.8c.18-2.26.94-1.39.94-1.39,0-.21,0-.41,0-.61-.07-1.52-.35-2.63.65-2s1.52,5,1.52,5c.94-6.29-.45-7.22.64-6.67,1.48.76,1.5,6.31,1.5,6.48,1.19-3.66.87-5.74,1.7-4.91s-.42,7.55-.92,10c-.11.56-.19.9-.19.9C168.47,80.94,168.51,82.46,168.51,82.46Z"/><path class="cls-3" d="M164.67,82c-.11.56-.19.9-.19.9a3.69,3.69,0,0,0-3.18,1.81A3.29,3.29,0,0,1,164.67,82Z"/><path class="cls-3" d="M159.88,79.13c0-.53.25-3.59-.28-4.51,0-.21,0-.41,0-.61C160.73,74.26,160,78.49,159.88,79.13Z"/><path class="cls-20" d="M163,105.62s3.4-9.21,4.48-11.27,6.71-1.71,11-.91,5.14,6.5,5.14,6.5S170.62,93.82,163,105.62Z"/><path class="cls-3" d="M184.88,87.49a37,37,0,0,0-4,15.85s-6.62,4.5-9-1.13a42.74,42.74,0,0,0,1.29-17.33C172.38,78.21,184.88,87.49,184.88,87.49Z"/><path class="cls-4" d="M171.9,77.05s-1.21-4.31-3.37-1.28c-2.49,3.51.05,6.93,1.38,6.11S171.9,77.05,171.9,77.05Z"/><path class="cls-4" d="M191.12,88.14s4.31-1.2,2.84,2.21c-1.71,4-5.94,3.55-5.94,2S191.12,88.14,191.12,88.14Z"/><path class="cls-4" d="M173.66,95.85c-6.13-3.45-7.33-9.4-.57-21.4,3.48-6.19,8.77-8.21,15.64-4.35s7.61,9.29,4.12,15.48C185.59,98.48,180,99.42,173.66,95.85Z"/><path class="cls-7" d="M188.41,88.72A1.66,1.66,0,1,1,187.32,87,1.49,1.49,0,0,1,188.41,88.72Z"/><path class="cls-7" d="M175.62,82a1.67,1.67,0,1,1-.65-2A1.49,1.49,0,0,1,175.62,82Z"/><path class="cls-8" d="M189.29,81a.35.35,0,0,1-.34-.27,4.06,4.06,0,0,0-1.88-2.18.35.35,0,0,1-.15-.47.36.36,0,0,1,.48-.15,4.7,4.7,0,0,1,2.23,2.63.36.36,0,0,1-.25.43Z"/><path class="cls-8" d="M180.88,75a.27.27,0,0,1-.18,0,4.08,4.08,0,0,0-2.84-.47.36.36,0,0,1-.21-.68,4.73,4.73,0,0,1,3.41.55.36.36,0,0,1,.12.48A.35.35,0,0,1,180.88,75Z"/><path class="cls-8" d="M186.76,83.87c-.43.76-1.12,1.18-1.54.94s-.42-1,0-1.81,1.12-1.18,1.54-.94S187.19,83.1,186.76,83.87Z"/><path class="cls-8" d="M178.17,79.26c-.43.76-1.12,1.18-1.54.94s-.42-1,0-1.8,1.12-1.19,1.54-1S178.6,78.5,178.17,79.26Z"/><path class="cls-8" d="M175.19,87.07s3.52,2.68,6.06,2.76c0,0-2.7,2.2-4.64.78A3.5,3.5,0,0,1,175.19,87.07Z"/><path class="cls-8" d="M184.91,82.33s1.62-1.56,2.28-1,.31,2.47.31,2.47l1.41,0-1.17-.47s.38-2-.35-2.4C186.36,80.36,184.91,82.33,184.91,82.33Z"/><path class="cls-8" d="M178.83,79.21s.5-2.19-.31-2.47-2.27,1-2.27,1l-.77-1.19,1,.76s1.51-1.36,2.24-.95C179.77,77,178.83,79.21,178.83,79.21Z"/><path class="cls-14" d="M190.35,72.67a3.5,3.5,0,0,0-5.22-.63c-3,2.42-9.87,6.29-13.23,5s7.35-15.61,16.66-11.41,8.47,17.86,4.6,22.2-2,.3-2,.3a49,49,0,0,1,1.55-10.25A3.87,3.87,0,0,0,190.35,72.67Z"/><path class="cls-7" d="M180,85.67a2,2,0,0,1-.53-.07l.19-.73a.87.87,0,0,0,1.08-.36,1,1,0,0,0,0-1c-.1-.1-.27-.09-.5,0l-.35-.67a1.09,1.09,0,0,1,1.39.12,1.67,1.67,0,0,1,.1,1.9A1.56,1.56,0,0,1,180,85.67Z"/><path class="cls-20" d="M224.9,138.44c-.36,5.38-13.68,22.92-15.91,23.54a5.86,5.86,0,0,0-1.72.85l-.68.52a17,17,0,0,0-2.22,2.2c-3.89-.25-14.8-5.3-11.3-6.42a2.34,2.34,0,0,0,.7-.36,3.42,3.42,0,0,0,.46-.36c4.13-3.46,12.17-17.52,12.22-18.58s1.43-1.39,1.43-1.39-7.58-11.14-12-12.48-6.61-6.66-6.61-6.66c-4.34-18.38,8.28-15.49,8.28-15.49C206.87,109.35,225.27,133,224.9,138.44Z"/><path class="cls-21" d="M207.27,162.83l-.68.52a27.86,27.86,0,0,1-12.82-4.58,3.42,3.42,0,0,0,.46-.36A27,27,0,0,0,207.27,162.83Z"/><path class="cls-21" d="M151.91,99.67a3.94,3.94,0,0,1-.35.55,13.68,13.68,0,0,1-2.44-.3,18.29,18.29,0,0,1-9-4.92q-.69-.68-1.2-1.26a4.33,4.33,0,0,1,.49-.29c.29.32.62.68,1,1a17.71,17.71,0,0,0,9.09,4.94A13.9,13.9,0,0,0,151.91,99.67Z"/><path class="cls-21" d="M211.48,178.8a15.62,15.62,0,0,1-11.13,7.8,4.92,4.92,0,0,1-.31-.51,15.25,15.25,0,0,0,11.18-7.94C211.3,178.38,211.39,178.6,211.48,178.8Z"/><path class="cls-6" d="M110.44,279.82a19.62,19.62,0,0,0-2.83,3.87c-1.45,2.51.14,4.82-6.84,10.64,0,0-14.09-8.25-20.45-18.85a4.1,4.1,0,0,1,3.18-3.74c1.66-.38,6.21,1.75,10.58,2.57.63.11,1.25.21,1.86.26a11.16,11.16,0,0,0,2.24,0,6.54,6.54,0,0,0,1.89-.46h0a5.59,5.59,0,0,0,3.27-3.94s3.75,2.13,1.25,5.74C104.6,275.9,109,274,110.44,279.82Z"/><path class="cls-1" d="M100.77,294.33s-14.09-8.25-20.45-18.85c0,0,2.36-.5,4.32,3S101.91,290,100.77,294.33Z"/><path class="cls-1" d="M100.82,277.65c-1.14,1.81-1.12-1.53-2.64-3.09a6.54,6.54,0,0,0,1.89-.46h0C100.76,274.83,101.72,276.24,100.82,277.65Z"/><path class="cls-1" d="M96.39,277.75c-1.21,1.15-1.6-1.84-2.31-3.44.63.11,1.25.21,1.86.26C96.65,275.53,97.31,276.88,96.39,277.75Z"/><path class="cls-6" d="M197.12,316.42H177.19a11.58,11.58,0,0,1,0-5.82c.35-1.33,2.42-2.56,4.34-4.28a17,17,0,0,0,1.52-1.54,8.81,8.81,0,0,0,1-1.46,7.52,7.52,0,0,0,.82-2.07,9.11,9.11,0,0,0-.67-5.42s6.79-1.42,9.21,2.28c0,0,.23-1.71,2.38-.57a31.31,31.31,0,0,0,.12,6.31C196.34,306.71,199,307.54,197.12,316.42Z"/><path class="cls-1" d="M191.93,304.42a.92.92,0,0,1-1.25.1,7.29,7.29,0,0,0-6.62-1.2,7.52,7.52,0,0,0,.82-2.07c1.33-.49,3.84-.78,6.94,1.86A.92.92,0,0,1,191.93,304.42Z"/><path class="cls-1" d="M190.25,307.73l-.11.17a.91.91,0,0,1-1.22.3c-1.35-.8-4.4-2.31-7.39-1.88a17,17,0,0,0,1.52-1.54,7.91,7.91,0,0,1,7,1.74A.92.92,0,0,1,190.25,307.73Z"/></g></g></svg>